<?xml version="1.0" standalone="no"?>
<!DOCTYPE svg PUBLIC "-//W3C//DTD SVG 20010904//EN"
 "http://www.w3.org/TR/2001/REC-SVG-20010904/DTD/svg10.dtd">
<svg version="1.0" xmlns="http://www.w3.org/2000/svg"
 width="126.000000pt" height="126.000000pt" viewBox="0 0 126.000000 126.000000"
 preserveAspectRatio="xMidYMid meet">
<metadata>
Created by potrace 1.14, written by Peter Selinger 2001-2017
</metadata>
<g transform="translate(0.000000,126.000000) scale(0.100000,-0.100000)"
fill="#000000" stroke="none">
<path d="M368 1219 c-29 -11 -54 -19 -56 -19 -6 0 -82 -81 -83 -88 0 -4 -3
-16 -5 -27 -10 -45 4 -102 43 -167 2 -5 -20 -8 -50 -8 l-55 0 20 52 c27 71 27
156 0 200 -24 38 -57 68 -75 68 -6 -1 2 -13 20 -28 53 -45 69 -112 48 -193 -7
-27 -14 -53 -14 -57 -6 -42 -26 -56 -28 -19 -7 99 -57 182 -106 175 -19 -3
-18 -6 15 -21 41 -21 74 -83 81 -153 3 -38 0 -44 -31 -69 -70 -56 -91 -154
-51 -239 22 -47 92 -111 109 -101 5 3 14 -12 20 -32 7 -21 16 -42 20 -46 4 -5
0 -35 -10 -68 -10 -32 -17 -59 -15 -59 2 0 -2 -17 -10 -39 -11 -32 -11 -43 0
-64 22 -43 49 -76 63 -77 18 0 15 7 -20 56 l-31 44 19 62 c10 35 18 68 16 75
-5 24 16 21 27 -4 7 -16 8 -28 3 -32 -13 -8 21 -77 36 -74 6 2 9 -3 6 -11 -3
-7 3 -16 12 -20 28 -11 26 -1 -5 33 -16 17 -26 31 -23 31 4 0 0 5 -8 10 -9 6
-11 10 -3 10 7 0 10 7 6 18 -4 11 6 6 28 -14 19 -17 55 -46 82 -64 26 -18 48
-39 48 -47 1 -7 3 -17 4 -23 1 -5 3 -14 4 -18 0 -5 23 -33 51 -63 55 -60 68
-50 18 14 -36 45 -58 83 -58 100 0 7 4 7 12 -1 7 -7 20 -12 30 -12 10 0 18 -4
18 -10 0 -5 3 -9 8 -8 18 5 71 -15 76 -28 6 -16 26 -19 26 -3 0 5 -5 7 -12 3
-6 -4 -8 -3 -5 2 3 6 37 8 76 7 70 -3 71 -3 117 -53 44 -47 50 -50 95 -50 27
0 49 5 49 10 0 6 -6 11 -12 12 -7 0 -22 2 -33 3 -11 1 -25 3 -31 4 -14 1 -90
69 -83 74 2 2 26 8 52 14 44 10 51 9 77 -13 33 -28 100 -34 100 -9 0 13 -4 14
-21 4 -15 -8 -19 -8 -15 0 4 6 2 11 -3 11 -6 0 -11 -5 -11 -10 0 -6 -13 -1
-30 11 -32 24 -28 42 13 55 12 4 40 26 62 50 l41 43 103 3 102 3 -90 60 c-87
57 -91 62 -92 98 -2 48 -1 43 -32 105 -15 28 -32 52 -37 52 -6 0 -10 5 -10 10
0 13 -37 50 -51 50 -5 0 -7 5 -4 10 3 6 0 10 -7 10 -7 0 -22 7 -32 15 -19 14
-18 16 15 47 19 18 38 41 42 51 3 9 11 17 17 17 5 0 10 6 10 13 0 8 9 24 19
36 39 44 36 136 -6 180 -21 21 -113 76 -113 67 0 -4 -10 -2 -21 5 -13 7 -41 9
-73 5 -40 -5 -60 -15 -89 -42 -20 -20 -35 -40 -32 -45 3 -5 0 -6 -7 -4 -7 3
-26 28 -43 55 -54 92 -131 122 -227 89z"/>
</g>
</svg>
